<svg xmlns="http://www.w3.org/2000/svg" xmlns:xlink="http://www.w3.org/1999/xlink" width="511" height="373" viewBox="0 0 511 373">
    <defs>
        <path id="a" d="M.217 134.488c1.75-63.567 72.3-83.538 120.695-44.294 48.395 39.246 95.04 27.639 120.112-5.528 25.07-33.164 41.78-105.856 111.95-77.866 52.318 20.872 87.44 76.898 98.788 127.397 7.797 34.704-3.505 71.366-30.763 94.264a96.26 96.26 0 0 1-2.722 2.205l-344.594-1.104S-1.534 198.054.217 134.488z"/>
        <path id="c" d="M.814 8.994L3.024.91z"/>
    </defs>
    <g fill="none" fill-rule="evenodd">
        <path fill="#DBDCE7" d="M98.029 320.434s-75.155-31.506-73.405-95.069c1.748-63.563 72.24-73.513 120.595-34.27 48.355 39.245 94.96 27.636 120.013-5.527 25.05-33.164 41.746-115.872 111.857-87.884 52.275 20.87 87.367 76.894 98.707 127.39 7.79 34.703-3.502 71.363-30.737 94.259a96.196 96.196 0 0 1-2.721 2.205l-344.309-1.104"/>
        <g transform="translate(24.594 90.176)">
            <mask id="b" fill="#fff">
                <use xlink:href="#a"/>
            </mask>
            <use fill="#CCC" xlink:href="#a"/>
            <path fill="#DDD" d="M150.224 93.087s-16.484 136.857 86.462 62.022c84.489-61.42 204.265-54.465 206.733 93.392 0 0 43.31 1.85 39.465-72.942-3.847-74.794-38.458-245.684-138.447-226.483-99.993 19.2-194.213 144.01-194.213 144.01" mask="url(#b)"/>
        </g>
        <path fill="#E7E7EE" d="M191.522 69.226l90.92.38c12.123.053 21.68 10.381 20.826 22.518l-14.761 210.157c-.762 10.847-9.753 19.257-20.588 19.257h-92.43c-12.003 0-21.473-10.24-20.582-22.252l15.62-210.581c.816-11.017 9.984-19.523 20.995-19.479"/>
        <path fill="#C4C7DB" d="M191.522 69.226l90.92.38c12.123.053 21.68 10.381 20.826 22.518l-14.761 210.157c-.762 10.847-9.753 19.257-20.588 19.257h-92.43c-12.003 0-21.473-10.24-20.582-22.252l15.62-210.581c.816-11.017 9.984-19.523 20.995-19.479"/>
        <path fill="#B1B6D1" d="M181.502 69.226l90.92.38c12.124.053 21.68 10.381 20.826 22.518L278.49 302.281c-.764 10.847-9.754 19.257-20.59 19.257h-92.428c-12.003 0-21.474-10.24-20.584-22.252l15.62-210.581c.816-11.017 9.986-19.523 20.995-19.479"/>
        <path fill="#FFFFFE" d="M174.194 88.355h104.533l-12.572 200.519-104.93.784 12.97-201.303"/>
        <path fill="#707FAC" d="M209.044 295.687c-4.96 0-8.999 4.037-8.999 9 0 4.961 4.038 8.999 9 8.999 4.963 0 9.003-4.038 9.003-8.999 0-4.963-4.04-9-9.004-9zm0 19.475c-5.773 0-10.474-4.7-10.474-10.475 0-5.775 4.7-10.475 10.474-10.475 5.778 0 10.476 4.7 10.476 10.475 0 5.775-4.698 10.475-10.476 10.475zM235.973 81.068h-17.42c-.975 0-1.765-.816-1.765-1.822 0-1.006.79-1.822 1.765-1.822h17.42c.973 0 1.765.816 1.765 1.822 0 1.006-.792 1.822-1.765 1.822"/>
        <path fill="#C4C7DB" d="M266.435 140.275h-84.949c-2.21 0-3.97-1.861-3.86-4.083l1.138-23.187c.1-2.072 1.802-3.7 3.861-3.7h84.95c2.21 0 3.97 1.86 3.86 4.085l-1.139 23.184c-.1 2.074-1.8 3.7-3.86 3.7"/>
        <path fill="#B1B6D1" d="M243.357 140.275h23.148c2.02 0 3.691-1.615 3.79-3.672l1.14-23.245c.11-2.205-1.62-4.053-3.792-4.053h-23.144c-2.025 0-3.692 1.614-3.792 3.669l-1.143 23.245c-.106 2.205 1.623 4.056 3.793 4.056"/>
        <path fill="#707FAC" d="M235.341 117.128h-48.037c-.318 0-.575-.24-.575-.537 0-.295.257-.536.575-.536h48.037c.318 0 .575.24.575.536 0 .297-.257.537-.575.537M234.432 125.325h-48.039c-.318 0-.575-.238-.575-.535 0-.297.257-.536.575-.536h48.04c.315 0 .572.239.572.536 0 .297-.257.535-.573.535M209.843 132.614h-23.458a.552.552 0 0 1-.567-.537c0-.297.253-.538.567-.538h23.458c.314 0 .569.24.569.538 0 .297-.255.537-.569.537"/>
        <path fill="#C4C7DB" d="M263.7 183.996h-84.945c-2.21 0-3.97-1.86-3.863-4.084l1.14-23.185c.102-2.07 1.8-3.7 3.862-3.7h84.944c2.212 0 3.975 1.862 3.865 4.084l-1.14 23.186c-.101 2.072-1.801 3.7-3.862 3.7"/>
        <path fill="#B1B6D1" d="M239.713 183.996h23.144c2.025 0 3.694-1.612 3.795-3.667l1.14-23.247c.108-2.205-1.62-4.055-3.793-4.055h-23.143c-2.025 0-3.692 1.614-3.793 3.671l-1.142 23.247c-.107 2.205 1.622 4.051 3.792 4.051"/>
        <path fill="#707FAC" d="M231.7 160.85h-48.04c-.32 0-.574-.24-.574-.537 0-.297.255-.536.575-.536H231.7c.317 0 .573.239.573.536 0 .297-.256.537-.573.537M231.698 168.137H183.66c-.318 0-.575-.24-.575-.535 0-.297.257-.538.575-.538h48.037c.317 0 .575.24.575.538 0 .295-.258.535-.575.535M207.11 176.335h-23.456c-.314 0-.568-.239-.568-.536 0-.298.254-.537.568-.537h23.457c.314 0 .568.239.568.537 0 .297-.254.536-.568.536"/>
        <path fill="#959DBA" d="M174.888 88.355l-13.314 201.303h-2.171l13.344-201.303h2.14"/>
        <path fill="#FFFFFE" d="M263.22 125.906c-.363 5.27-4.931 9.245-10.2 8.88-5.27-.363-9.247-4.93-8.883-10.2a9.564 9.564 0 0 1 19.082 1.32"/>
        <path fill="#B1B6D1" d="M251.836 128.431a.886.886 0 0 1-.553-.25l-3.264-3.227a.881.881 0 0 1-.012-1.241.87.87 0 0 1 1.235-.01l2.71 2.678 6.227-5.041a.869.869 0 0 1 1.227.133.882.882 0 0 1-.13 1.234l-6.834 5.531a.87.87 0 0 1-.606.193"/>
        <path fill="#FFFFFE" d="M261.397 168.717c-.364 5.268-4.932 9.245-10.201 8.88-5.268-.362-9.245-4.93-8.88-10.2.364-5.27 4.932-9.246 10.2-8.882 5.269.365 9.246 4.932 8.881 10.202"/>
        <path fill="#B1B6D1" d="M250.013 172.153a.877.877 0 0 1-.553-.249l-3.264-3.226a.882.882 0 0 1-.01-1.242.87.87 0 0 1 1.235-.012l2.71 2.68 6.225-5.041a.871.871 0 0 1 1.229.131.881.881 0 0 1-.135 1.236l-6.829 5.532a.876.876 0 0 1-.608.191"/>
        <path fill="#84D2FF" d="M63.247 246.545s-1.236-1.91-4.432-14.7c-3.194-12.792-11.552-25.004-24.58-20.466-13.028 4.538-9.287 19.616-2.871 43.969 4.581 17.386-14.126 30.877 10.532 44.39 14.933 8.182 40.878-2.824 35.787-27.57 0 0-1.241-7.507-6.323-13.829-5.083-6.323-8.113-11.794-8.113-11.794" opacity=".8"/>
        <path fill="#3A77AF" d="M53.592 323.347a.555.555 0 0 1-.429-.63C59.034 285.037 43 234.42 42.84 233.912a.556.556 0 0 1 1.057-.342c.163.51 16.275 51.38 10.365 89.32a.555.555 0 0 1-.636.463l-.033-.006"/>
        <path fill="#3A77AF" d="M48.681 253.21l-.084-.03c-.264-.114-.39-.44-.282-.725.025-.066 2.546-6.762 3.495-12.438.05-.302.318-.503.597-.448.282.052.466.343.415.645-.967 5.793-3.529 12.596-3.554 12.664a.508.508 0 0 1-.587.332M50.354 265.052l-.214-.1c-2.779-2.146-9.722-6.13-9.791-6.171a.533.533 0 0 1-.199-.731.536.536 0 0 1 .735-.2c.288.166 7.08 4.062 9.917 6.254a.535.535 0 0 1 .094.752.54.54 0 0 1-.542.196M52.334 275.982l-.11-.041c-.265-.13-.378-.467-.254-.75l3.495-7.978a.513.513 0 0 1 .703-.274c.265.135.38.47.256.75l-3.495 7.98a.526.526 0 0 1-.595.313"/>
        <path fill="#F7F7F7" d="M116.089 117.728c-2.835-2.45-6.088-6.78-16.493-3.59-.81.248-1.593.577-2.372.908-.917.39-3.758.403-6.67-1.92-4.623-3.684-6.429-6.468-12.766-6.553-7.37-.1-8.528 9.126-14.257 11.488-3.646 1.502-13.266 2.996-15.255 3.663l71.96.333s-2.57-2.969-4.147-4.33z"/>
        <path fill="#EEE" d="M263.767 12.351c.977-.857 1.909-1.844 3.135-2.612 1.226-.765 2.726-1.34 4.935-1.344 1.486 0 3.293.27 5.518.96.652.201 1.308.478 1.985.77.406.171.87.241 1.444.245 1.366 0 3.32-.487 5.279-2.065 2.062-1.667 3.468-3.087 4.946-4.04 1.48-.949 3.034-1.518 5.681-1.564h.09c1.402.004 2.44.426 3.392 1.124 1.422 1.043 2.575 2.79 3.834 4.544 1.263 1.74 2.661 3.525 4.802 4.426 1.733.718 2.594.985 5.333 1.562l-52.733.248-1.836 1.79 62.91-.294a.887.887 0 0 0 .867-.754.901.901 0 0 0-.591-.99c-.529-.175-1.375-.362-2.47-.595-1.634-.342-3.773-.76-5.794-1.216-2.015-.451-3.932-.95-5.017-1.406-2.128-.861-3.595-3.219-5.295-5.568-.855-1.164-1.784-2.312-2.972-3.195a7.23 7.23 0 0 0-4.43-1.466h-.115c-2.89.032-4.898.73-6.603 1.846-1.708 1.112-3.114 2.552-5.096 4.146-1.637 1.323-3.219 1.677-4.182 1.677-.394.004-.69-.07-.756-.104-.684-.292-1.396-.597-2.158-.833-2.356-.732-4.336-1.039-6.033-1.039-2.52-.006-4.414.697-5.863 1.612-1.451.915-2.476 2.015-3.357 2.779-1.47 1.289-3.697 3.903-3.713 3.919a.91.91 0 0 0-.137.96c.145.319.46.524.805.522 2.375-2.33 3.773-3.677 4.195-4.045z"/>
        <path fill="#F7F7F7" d="M377.985 52.586c4.347-3.747 9.328-10.37 25.265-5.488 1.237.38 2.438.881 3.63 1.388 1.406.598 5.757.614 10.215-2.936 7.081-5.637 9.851-9.892 19.553-10.025 11.29-.152 13.067 13.958 21.84 17.57 5.583 2.3 20.315 4.584 23.364 5.602l-110.216.51s3.939-4.54 6.35-6.62z"/>
        <path fill="#84D2FF" d="M141.541 68.03a14.26 14.26 0 0 0 3.288-9.112c0-7.858-6.395-14.285-14.208-14.285H99.832c-7.815 0-14.21 6.427-14.21 14.285 0 7.858 6.395 14.288 14.21 14.288h30.789c2.275 0 4.422-.559 6.336-1.527l7.12 3.923-2.536-7.572"/>
        <path fill="#FFFFFE" d="M122.057 58.751a3.187 3.187 0 1 0 6.375.002 3.187 3.187 0 0 0-6.375-.002M112.037 58.751a3.189 3.189 0 1 0 6.378 0 3.189 3.189 0 0 0-6.378 0M101.107 58.751a3.187 3.187 0 1 0 6.376 0 3.187 3.187 0 1 0-6.376 0"/>
        <path fill="#84D2FF" d="M400.178 286.925c-.972.06-25.546-2.912-26.663-25.903-1.116-22.993 14.545-28.685 10.423-54.28-4.124-25.599-14.933-32.954 9.296-51.634 0 0 10.805-7.523 11.308-18.075.602-12.631 22.273-27.29 36.808-18.865s11.12 21.445-1.327 42.509c-12.446 21.066-.452 24.745 1.94 31.553 2.391 6.811 7.94 13.954-4.766 30.232-12.702 16.277 2.43 36.15-8.381 51.739 0 0-9.49 11.533-28.638 12.724" opacity=".8"/>
        <path fill="#3C75AE" d="M403.987 322.416c.536-.134.88-.661.775-1.206-13.406-70.181 13.921-165.891 14.198-166.85a1.04 1.04 0 0 0-.722-1.292c-.56-.16-1.144.16-1.304.716-.279.964-27.738 97.15-14.243 167.814.109.567.66.94 1.233.833l.063-.015"/>
        <path fill="#3C75AE" d="M409.102 192.163l.171-.061c.529-.236.764-.856.529-1.383-.057-.126-5.59-12.573-7.859-23.2a1.047 1.047 0 0 0-1.242-.806c-.57.118-.926.679-.804 1.243 2.315 10.85 7.938 23.493 7.994 23.617.21.472.728.712 1.211.59M405.74 213.113l.41-.205c5.291-4.283 18.595-12.347 18.73-12.428.493-.3.647-.934.339-1.418a1.054 1.054 0 0 0-1.446-.334c-.551.332-13.562 8.218-18.966 12.592a1.018 1.018 0 0 0-.138 1.45c.269.318.69.438 1.07.343M402.758 234.063l.208-.08c.495-.256.693-.875.442-1.383l-7.095-14.336a.993.993 0 0 0-1.354-.452 1.04 1.04 0 0 0-.442 1.382l7.095 14.335a.998.998 0 0 0 1.146.534"/>
        <path fill="#0696E8" d="M459.221 296.01c-.916.709-9.129-14.19-11.043-33.137 0 0-.927-9.32 7.904-4.575 0 0-9.134-40.746 15.197-37.704 4.196.524 6.587 1.46 9 4.115 3.272 3.591 5.072 9.387 1.21 17.719-7.72 16.667-14.5 23.136-11.181 31.963 3.318 8.828 2.197 11.351-11.087 21.619"/>
        <path fill="#3C75AE" d="M461.146 322.43a.9.9 0 0 0 .691-1.062c-5.563-27.503 2.438-73.83 3.457-75.86a.882.882 0 0 0-.218-1.233c-.397-.29-.967-.173-1.255.23-1.648 2.327-9.12 50.546-3.723 77.223a.888.888 0 0 0 1.048.703"/>
        <path fill="#999" d="M.481 322.897h510.038c.266 0 .481-.2.481-.448s-.215-.448-.481-.448H.481c-.266 0-.481.2-.481.448s.215.448.481.448"/>
        <path fill="#38394E" d="M314.698 234.377l-3.18 13.084 38.257 2.118-1.293-16.395-33.784 1.193"/>
        <path fill="#38394E" d="M329.736 243.203l-11.214 37.978.224 57.377-13.684.287-2.652-58.535 9.162-36.091 18.164-1.016"/>
        <g transform="translate(325.182 247.758)">
            <mask id="d" fill="#fff">
                <use xlink:href="#c"/>
            </mask>
            <path fill="#C3C4CD" d="M.814 8.994h2.21V.91H.814z" mask="url(#d)"/>
        </g>
        <path fill="#313246" d="M326.406 256.866l-6.69-9.108 9.11.872-2.42 8.236"/>
        <path fill="#38394E" d="M350.093 247.06l2.576 35.64 10.77 58.821-13.464 2.79-13.013-60-4.493-41.108 17.624 3.857"/>
        <path fill="#222731" d="M309.424 338.894l7.367-.05.193 10.79-20.95.141c.15-1.694 1.265-3.03 2.882-3.435l10.375-2.592.133-4.854"/>
        <path fill="#B1B6D1" d="M316.974 349.85l-20.94.13.011 1.543 20.939-.129-.01-1.545"/>
        <path fill="#FFFFFE" d="M315.162 343.386a1.822 1.822 0 1 1-3.644.025 1.822 1.822 0 0 1 3.644-.025"/>
        <path fill="#222731" d="M353.64 342.578l7.367-1 1.52 10.814-20.947 2.849c-.058-1.722.893-3.208 2.462-3.824l10.062-3.944-.465-4.895"/>
        <path fill="#B1B6D1" d="M362.312 352.508l-20.734 2.87.213 1.684 20.737-2.868-.216-1.686"/>
        <path fill="#FFFFFE" d="M359.78 346.802c.13.997-.57 1.912-1.568 2.047a1.825 1.825 0 0 1-2.044-1.569 1.818 1.818 0 0 1 1.567-2.043 1.82 1.82 0 0 1 2.044 1.565"/>
        <path fill="#000" d="M298.817 214.952l-.454-.049-35.12-5.231 1.705-11.51 31.464 4.687c6.255-9.525 15.821-20.674 15.821-20.674-.07.144.356.506 0 0l11.07 1.148c.495 2.806-1.941 2.828-19.248 29.038a5.8 5.8 0 0 1-5.238 2.591"/>
        <path fill="#000" d="M331.31 179.442l1.138.187c4.998.82 9.027 4.532 10.228 9.436l8.01 45.449c-17.033 9.247-38.587.097-38.587.097l-4.138-42.385a11.049 11.049 0 0 1 6.104-11.284l17.245-1.5"/>
        <path fill="#DAA180" d="M327.294 183.996l-9.4-.802 1.53-21.97 9.401.807-1.531 21.965"/>
        <path fill="#DAA180" d="M316.388 180.686l14.26-1.244s-.104 8.317-8.704 8.197c-7.862-.11-5.556-6.953-5.556-6.953"/>
        <path fill="#FFFFFE" d="M264.063 204.188a6.375 6.375 0 1 1-12.572-2.128 6.375 6.375 0 0 1 12.572 2.128"/>
        <path fill="#FFFFFE" d="M267.789 207.635l-6.494-1.087c-1.696-.286-2.85-1.892-2.563-3.574.29-1.68 1.91-2.823 3.608-2.538l6.492 1.09c1.697.283 2.85 1.893 2.565 3.572-.29 1.682-1.91 2.824-3.608 2.537"/>
        <path fill="#2E954E" d="M281.417 209.36c-.675 9.787-9.157 17.169-18.943 16.494-9.786-.677-17.17-9.157-16.495-18.944.677-9.785 9.157-17.171 18.945-16.494 9.785.677 17.17 9.158 16.493 18.944"/>
        <path fill="#E9F0F4" d="M260.75 214.962a1.605 1.605 0 0 1-1.018-.466l-6.028-6.05a1.675 1.675 0 0 1-.02-2.329 1.59 1.59 0 0 1 2.279-.02l5.006 5.024 11.492-9.453a1.587 1.587 0 0 1 2.265.249c.56.708.45 1.744-.242 2.313l-12.61 10.373c-.33.269-.73.387-1.124.36"/>
        <path fill="#E0AB8B" d="M316.134 175.77c-6.506-.45-11.412-6.103-10.963-12.622l1.013-14.676 23.552 1.633-1.012 14.676c-.452 6.518-6.088 11.44-12.59 10.989"/>
        <path fill="#22222F" d="M329.325 161.225l-3.404-.17a1.478 1.478 0 0 1-1.353-1.833c.596-2.443 1.365-6.651-.204-7.258-2.227-.861-14.561 1.603-18.517-1.818-5.568-4.815-.941-11.705 4.334-11.693 5.275.014 4.142 6.092 10.281 6.343 6.137.248 15.586-1.57 10.61 14.533l-1.747 1.896"/>
        <path fill="#E0AB8B" d="M333.37 161.476a3.645 3.645 0 0 1-3.886 3.383 3.64 3.64 0 0 1-3.382-3.886 3.642 3.642 0 1 1 7.269.503"/>
        <path fill="#DD9C6D" d="M287.82 219.05a6.376 6.376 0 1 1-12.72-.88 6.376 6.376 0 0 1 12.72.88"/>
        <path fill="#DD9C6D" d="M290.887 222.246l-6.53-.432c-1.71-.114-3.009-1.539-2.89-3.17.117-1.63 1.61-2.873 3.316-2.76l6.534.43c1.708.114 3.007 1.541 2.888 3.17-.117 1.633-1.61 2.874-3.318 2.762"/>
        <path fill="#000" d="M287.836 224.933l.014-11.58 31.787.05 10.927-26.02a5.76 5.76 0 0 1 7.64-2.864c2.896 1.327 4.173 4.762 2.853 7.67l-12.47 29.41a5.77 5.77 0 0 1-5.255 3.387l-35.496-.053"/>
        <path fill="#495066" d="M303.32 338.845h17.307v-6.376h-17.306zM347.043 339.39l17.052-3.278 1.165 5.831-17.052 3.278-1.165-5.83"/>
        <path fill="#FFFFFE" d="M307.877 165.779l10.018.46s-.592 3.69-5.984 3.125c-4.257-.447-4.034-3.585-4.034-3.585"/>
        <path fill="#212121" d="M311.519 225.404l10.23.02a7.878 7.878 0 0 0 6.63-4.565l11.377-25.932c-4.41 15.127-10.21 30.53-10.21 30.53a4.781 4.781 0 0 1-4.668 3.169l-13.102-.531-.257-2.69"/>
        <path fill="#F1EEEB" d="M172.057 255.045c-1.854 0-3.465-1.396-3.714-3.314l-2.564-19.652.179-2.828a3.756 3.756 0 0 1 2.946-2.25l75.581-10.181c.167-.022.333-.032.496-.032 1.856 0 3.47 1.394 3.72 3.315l2.668 20.444c.27 2.09-1.176 4.007-3.23 4.282l-75.582 10.182a3.885 3.885 0 0 1-.5.034"/>
        <path fill="#9098B2" d="M165.759 232.273l-.097-.767a3.842 3.842 0 0 1 .264-1.966l-.167 2.733"/>
        <path fill="#C4C7DB" d="M242.644 235.723l-76.264 10.18c-2.075.276-3.979-1.193-4.254-3.282l-2.69-20.445c-.276-2.087 1.182-4.005 3.258-4.284l76.263-10.18c2.075-.276 3.981 1.193 4.254 3.282l2.692 20.445c.274 2.087-1.184 4.005-3.26 4.284"/>
        <path fill="#707FAC" d="M167.216 224.075a.514.514 0 0 1-.521-.424c-.04-.27.162-.516.45-.552l43.583-5.391a.495.495 0 0 1 .59.42c.04.27-.163.516-.45.55l-43.584 5.393-.068.004M168.125 231.362c-.26 0-.488-.18-.519-.426-.041-.27.163-.515.449-.55l43.582-5.392a.5.5 0 0 1 .591.42c.041.27-.162.517-.45.55l-43.582 5.392-.07.006M169.04 237.738c-.263 0-.49-.178-.524-.42-.039-.268.164-.511.454-.547l21.713-2.669a.504.504 0 0 1 .596.417c.037.268-.166.51-.456.547l-21.713 2.667-.07.005"/>
        <path fill="#222731" d="M137.913 332.077l-6.677-.52-.981 11.216 19.015 1.537.113-1.51c-.032-1.547-.96-2.828-2.402-3.298l-9.246-3.016.178-4.409M50.098 328.236l-.675-6.698-11.166.948 1.858 19.092 1.5-.149c1.51-.296 2.604-1.435 2.809-2.943l1.32-9.67 4.354-.58"/>
        <path fill="#444287" d="M78.006 277.468l12.316 39.716-42.957 2.558 1.279 10.23 52.379-1.767c4.65-.15 8.176-3.701 7.229-9.122l-2.937-29.51 27.69-.427-4.786 43.809 11.928.425 11.7-49.228c1.433-6.035-3.053-11.858-9.25-12.004l-28.174-.708-36.417 6.028"/>
        <path fill="#DAA180" d="M95.642 230.946l10.871 2.238 4.614-22.403-10.768-2.191-4.717 22.356"/>
        <path fill="#E0AB8B" d="M104.396 222.02h.002c5.95 1.234 11.784-2.545 13.03-8.44l2.807-13.269-21.552-4.473-2.805 13.269c-1.247 5.897 2.568 11.675 8.518 12.912"/>
        <path fill="#22222F" d="M112.196 206.403l-2.097 9.944c-.836 3.968-4.574 6.552-8.349 5.765l-1.98-.413c-6.6-1.372-10.763-8.113-9.301-15.055l1.896-8.984 20.583 4.282-.752 4.461"/>
        <path fill="#22222F" d="M111.127 204.415s5.145 1.39 8.389 1.442c4.23.065 6.853-4.897 4.215-8.279l-.375-.448c-3.228-3.587-8.86-1.8-8.832-1.442.03.357-3.397 8.727-3.397 8.727"/>
        <path fill="#22222F" d="M118.414 198.943s-6.235-8.882-17.014-6.267c0 0-4.136-.21-8.49 4.8l18.132 8.381 7.372-6.914"/>
        <path fill="#E0AB8B" d="M107.551 210.213a3.19 3.19 0 0 0 2.468 3.774 3.188 3.188 0 1 0-2.468-3.775"/>
        <path fill="#22222F" d="M102.704 191.153c-1.186 5.663-6.736 9.288-12.397 8.104-5.66-1.187-9.29-6.737-8.104-12.398 1.187-5.661 6.736-9.29 12.398-8.103 5.661 1.186 9.29 6.736 8.103 12.397"/>
        <path fill="#FFF" d="M114.77 270.978c-3.94-6.421-2.066-21.244-.445-30.138.797-4.37-1.185-8.779-4.953-11.13l-12.239-3.624c-3.034-1.046-7.005 2.48-9.164 4.854-19.306 21.233-11.87 48.268-11.87 48.268 6.585 1.61 14.683 1.536 19.095.987l-.004.006.167-.023.241-.03c11.775-1.286 19.172-9.17 19.172-9.17"/>
        <path fill="#E0AB8B" d="M160.699 235.822a6.832 6.832 0 1 0 11.069-8.008 6.832 6.832 0 0 0-11.07 8.008"/>
        <path fill="#E0AB8B" d="M159.917 240.743l5.453-4.174c1.425-1.089 1.747-3.215.717-4.722-1.032-1.506-3.04-1.848-4.465-.757l-5.454 4.173c-1.424 1.091-1.747 3.215-.716 4.723 1.032 1.506 3.041 1.848 4.465.757"/>
        <path fill="#FFF" d="M163.957 241.37l-6.52-10.41-28.741 17.936-18.04-18.334a6.157 6.157 0 0 0-8.524 1.726 6.13 6.13 0 0 0 1.725 8.505l21.342 20.517a6.163 6.163 0 0 0 6.658.089l32.1-20.03"/>
        <path fill="#423E84" d="M105.661 288.747l11.462-6.376-.621 2.95 16.486 3.008-27.327.418"/>
        <path fill="#FFFFFE" d="M361.677 123.903l-.973-2.757-.971 2.757c-.821 2.323-2.767 4.282-5.403 5.44 2.636 1.16 4.582 3.12 5.403 5.443l.97 2.756.974-2.756c.82-2.323 2.769-4.283 5.405-5.443-2.636-1.158-4.584-3.117-5.405-5.44M73.04 204.05l-.625-1.836-.627 1.836c-.526 1.548-1.778 2.856-3.472 3.63 1.694.772 2.946 2.078 3.472 3.626l.627 1.838.625-1.838c.527-1.548 1.78-2.854 3.473-3.627-1.694-.773-2.946-2.08-3.473-3.629"/>
        <path fill="#9DA7BF" d="M167.6 364.671l2.34 4.468 26.812.676 5.462-14.817-2.26-4.312-32.353 13.985"/>
        <path fill="#9DA7BF" d="M174.125 371.626l23.519.916c2.054.08 3.776-.85 3.915-2.118l1.557-14.337c.148-1.358-1.575-2.572-3.783-2.658l-23.516-.916c-2.055-.08-3.78.852-3.916 2.12l-1.559 14.335c-.148 1.362 1.577 2.574 3.783 2.658"/>
        <path fill="#B1B6D1" d="M171.392 367.071l23.519.917c2.054.082 3.777-.85 3.913-2.117l1.56-14.338c.147-1.358-1.575-2.572-3.783-2.658l-23.517-.917c-2.054-.08-3.779.853-3.915 2.121l-1.56 14.334c-.148 1.362 1.577 2.572 3.783 2.658"/>
    </g>
</svg>
