<svg xmlns="http://www.w3.org/2000/svg" width="26" height="26" viewBox="0 0 26 26">
    <g fill="none" fill-rule="nonzero">
        <circle cx="13" cy="13" r="13" fill="#FFD93B"/>
        <path fill="#3E4347" d="M12.768 21.357a8.362 8.362 0 0 1-8.108-6.285.544.544 0 1 1 1.056-.27 7.272 7.272 0 0 0 7.051 5.468 7.272 7.272 0 0 0 7.052-5.467.543.543 0 0 1 .663-.393c.292.075.468.37.394.662a8.36 8.36 0 0 1-8.108 6.285z"/>
        <path fill="#F4C534" d="M26 12.947C26 20.159 20.155 26 12.947 26a13.027 13.027 0 0 1-10.161-4.858 12.984 12.984 0 0 0 8.195 2.892c7.207 0 13.053-5.841 13.053-13.053 0-3.105-1.081-5.956-2.892-8.195A13.04 13.04 0 0 1 26 12.946z"/>
        <ellipse cx="8.589" cy="10.321" fill="#3E4347" rx="2.089" ry="2.321"/>
        <ellipse cx="17.411" cy="10.321" fill="#3E4347" rx="2.089" ry="2.321"/>
    </g>
</svg>
